<mxfile host="app.diagrams.net" modified="2021-08-31T18:17:27.394Z" agent="5.0 (Windows)" etag="U7BV1Tr-n3WOP_To7AiA" version="14.7.8" type="github">
  <diagram id="492CNQR9byqcyMjaMUjH" name="Page-1">
    <mxGraphModel dx="1422" dy="882" grid="1" gridSize="10" guides="1" tooltips="1" connect="1" arrows="1" fold="1" page="1" pageScale="1" pageWidth="827" pageHeight="1169" math="0" shadow="0">
      <root>
        <mxCell id="0" />
        <mxCell id="1" parent="0" />
        <mxCell id="Y33aKjas0IExECUo-_7N-1" value="GameController : MonoBehaviour" style="swimlane;fontStyle=1;align=center;verticalAlign=top;childLayout=stackLayout;horizontal=1;startSize=26;horizontalStack=0;resizeParent=1;resizeParentMax=0;resizeLast=0;collapsible=1;marginBottom=0;rounded=0;sketch=0;glass=0;" vertex="1" parent="1">
          <mxGeometry x="199" y="200" width="430" height="400" as="geometry">
            <mxRectangle x="199" y="200" width="220" height="26" as="alternateBounds" />
          </mxGeometry>
        </mxCell>
        <mxCell id="Y33aKjas0IExECUo-_7N-2" value="[Serialized]&#xa;boardControllerPrefab : BoardController&#xa;&#xa;[Private]&#xa;_boardController : BoardController&#xa;_creatureManager : CreatureManager&#xa;_gameStateMachine : GameStateMachine&#xa;_pathFinder : PathFinder&#xa;_spawner : Spawner&#xa;" style="text;strokeColor=none;align=left;verticalAlign=top;spacingLeft=4;spacingRight=4;overflow=hidden;rotatable=0;points=[[0,0.5],[1,0.5]];portConstraint=eastwest;labelBackgroundColor=none;fillColor=#ffffff;" vertex="1" parent="Y33aKjas0IExECUo-_7N-1">
          <mxGeometry y="26" width="430" height="134" as="geometry" />
        </mxCell>
        <mxCell id="Y33aKjas0IExECUo-_7N-3" value="" style="line;strokeWidth=1;align=left;verticalAlign=middle;spacingTop=-1;spacingLeft=3;spacingRight=3;rotatable=0;labelPosition=right;points=[];portConstraint=eastwest;" vertex="1" parent="Y33aKjas0IExECUo-_7N-1">
          <mxGeometry y="160" width="430" height="8" as="geometry" />
        </mxCell>
        <mxCell id="Y33aKjas0IExECUo-_7N-4" value="[Public Event]&#xa;StartTurn : StartTurnDelegate&#xa;EndTurn : EndTurnDelegate&#xa;&#xa;[Private]&#xa;Awake() : void&#xa;Update() : void&#xa;SpawnCreaturesInGame() : void&#xa;SetUpGame() : void&#xa;OnSelection(TileController tile) : void&#xa;OnStartTurn() : void&#xa;OnEndTurn() : void&#xa;[Public Delegate]&#xa;StartTurnDelegate(CreatureController currentCreature) : void&#xa;EndTurnDelegate() : void&#xa;" style="text;strokeColor=none;align=left;verticalAlign=top;spacingLeft=4;spacingRight=4;overflow=hidden;rotatable=0;points=[[0,0.5],[1,0.5]];portConstraint=eastwest;fillColor=#ffffff;" vertex="1" parent="Y33aKjas0IExECUo-_7N-1">
          <mxGeometry y="168" width="430" height="232" as="geometry" />
        </mxCell>
      </root>
    </mxGraphModel>
  </diagram>
</mxfile>
